<svg xmlns="http://www.w3.org/2000/svg" width="470" height="75" viewBox="0 0 470 75"><path fill="#9e1084" d="M27.50 0.80L20.10 60.65L44.60 60.65L43 73.65L2.20 73.65L11.20 0.80L27.50 0.80ZM79.80 60.85L79.80 60.85Q82.85 60.85 85.35 59.68Q87.85 58.50 89.75 56.33Q91.65 54.15 92.90 51.05Q94.15 47.95 94.60 44.10L94.60 44.10L99.90 0.80L116.20 0.80L110.90 44.10Q110.05 50.75 107.38 56.33Q104.70 61.90 100.43 65.93Q96.15 69.95 90.50 72.20Q84.85 74.45 78.10 74.45L78.10 74.45Q72 74.45 67.23 72.60Q62.45 70.75 59.18 67.38Q55.90 64 54.20 59.30Q52.50 54.60 52.50 48.95L52.50 48.95Q52.50 46.60 52.80 44.10L52.80 44.10L58.00 0.80L74.30 0.80L69 44.10Q68.90 45 68.85 45.88Q68.80 46.75 68.80 47.60L68.80 47.60Q68.80 53.80 71.63 57.33Q74.45 60.85 79.80 60.85ZM134.30 0.80L134.30 0.80Q135.35 0.80 136.07 0.88Q136.80 0.95 137.38 1.23Q137.95 1.50 138.40 2Q138.85 2.50 139.30 3.30L139.30 3.30L164.85 48.30Q164.95 46.55 165.15 44.95Q165.35 43.35 165.50 41.95L165.50 41.95L170.40 0.80L184.80 0.80L175.80 73.65L167.30 73.65Q165.40 73.65 164.15 73.10Q162.90 72.55 162 70.95L162 70.95L136.55 26Q136.45 27.40 136.32 28.70Q136.20 30 136.10 31.15L136.10 31.15L131.10 73.65L116.70 73.65L125.70 0.80L134.30 0.80ZM231.60 0.80L248.50 73.65L235.90 73.65Q233.80 73.65 232.53 72.68Q231.25 71.70 231.00 70.10L231.00 70.10L228.75 57L204.00 57L198.60 70.10Q198.05 71.50 196.45 72.58Q194.85 73.65 192.90 73.65L192.90 73.65L180.10 73.65L214.90 0.80L231.60 0.80ZM217.10 25.20L208.55 45.90L226.85 45.90L223.30 25.10Q222.85 22.50 222.33 19.83Q221.80 17.15 221.45 14.95L221.45 14.95Q221.05 16.15 220.40 17.68Q219.75 19.20 219.13 20.65Q218.50 22.10 217.93 23.35Q217.35 24.60 217.10 25.20L217.10 25.20ZM299.10 73.65L271.90 73.65L280.90 0.80L305.90 0.80Q312.25 0.80 316.78 2Q321.30 3.20 324.18 5.42Q327.05 7.65 328.38 10.78Q329.70 13.90 329.70 17.70L329.70 17.70Q329.70 20.70 328.93 23.48Q328.15 26.25 326.48 28.60Q324.80 30.95 322.15 32.88Q319.50 34.80 315.75 36.10L315.75 36.10Q321.65 37.70 324.48 41.08Q327.30 44.45 327.30 49.60L327.30 49.60Q327.30 54.65 325.38 59.03Q323.45 63.40 319.80 66.65Q316.15 69.90 310.93 71.78Q305.70 73.65 299.10 73.65L299.10 73.65ZM302.50 42.55L292.00 42.55L289.70 61.40L300.40 61.40Q303.40 61.40 305.45 60.53Q307.50 59.65 308.78 58.08Q310.05 56.50 310.63 54.40Q311.20 52.30 311.20 49.80L311.20 49.80Q311.20 48.15 310.78 46.80Q310.35 45.45 309.33 44.53Q308.30 43.60 306.63 43.08Q304.95 42.55 302.50 42.55L302.50 42.55ZM295.60 12.95L293.30 31.75L301.10 31.75Q303.85 31.75 306.05 31.20Q308.25 30.65 309.83 29.33Q311.40 28 312.25 25.80Q313.10 23.60 313.10 20.35L313.10 20.35Q313.10 16.30 310.98 14.63Q308.85 12.95 304.40 12.95L304.40 12.95L295.60 12.95ZM403.50 32.55L403.50 32.55Q403.50 38.45 402.13 43.85Q400.75 49.25 398.23 53.90Q395.70 58.55 392.13 62.35Q388.55 66.15 384.10 68.83Q379.65 71.50 374.45 72.98Q369.25 74.45 363.50 74.45L363.50 74.45Q356.30 74.45 350.58 71.93Q344.85 69.40 340.85 65.03Q336.85 60.65 334.73 54.73Q332.60 48.80 332.60 41.95L332.60 41.95Q332.60 36.05 333.98 30.63Q335.35 25.20 337.88 20.55Q340.40 15.90 344 12.10Q347.60 8.30 352.05 5.63Q356.50 2.95 361.70 1.48Q366.90 0 372.70 0L372.70 0Q379.85 0 385.58 2.53Q391.30 5.05 395.28 9.45Q399.25 13.85 401.38 19.80Q403.50 25.75 403.50 32.55ZM386.80 32.95L386.80 32.95Q386.80 28.45 385.73 24.78Q384.65 21.10 382.58 18.48Q380.50 15.85 377.50 14.43Q374.50 13 370.70 13L370.70 13Q365.70 13 361.75 15.08Q357.80 17.15 355.03 20.90Q352.25 24.65 350.78 29.93Q349.30 35.20 349.30 41.60L349.30 41.60Q349.30 46.10 350.35 49.75Q351.40 53.40 353.43 56Q355.45 58.60 358.45 60.03Q361.45 61.45 365.30 61.45L365.30 61.45Q370.30 61.45 374.28 59.40Q378.25 57.35 381.03 53.60Q383.80 49.85 385.30 44.60Q386.80 39.35 386.80 32.95ZM469.10 0.80L439.25 45.75L435.80 73.65L419.50 73.65L422.95 45.90L404.20 0.80L418.70 0.80Q420.80 0.80 421.98 1.78Q423.15 2.75 423.70 4.35L423.70 4.35L430.70 26.40Q431.40 28.60 431.98 30.65Q432.55 32.70 432.95 34.60L432.95 34.60Q433.90 32.70 435.05 30.68Q436.20 28.65 437.50 26.40L437.50 26.40L449.90 4.35Q450.65 3 452.10 1.90Q453.55 0.80 455.60 0.80L455.60 0.80L469.10 0.80Z"></path></svg>