<svg xmlns="http://www.w3.org/2000/svg" width="108" height="18" viewBox="0 0 108 18"><path fill="#fff" d="M6.33 0.18L4.62 13.95L10.26 13.95L9.89 16.94L0.51 16.94L2.58 0.18L6.33 0.18ZM18.35 14.00L18.35 14.00Q19.06 14.00 19.63 13.73Q20.21 13.45 20.64 12.95Q21.08 12.45 21.37 11.74Q21.65 11.03 21.76 10.14L21.76 10.14L22.98 0.18L26.73 0.18L25.51 10.14Q25.31 11.67 24.70 12.95Q24.08 14.24 23.10 15.16Q22.11 16.09 20.81 16.61Q19.52 17.12 17.96 17.12L17.96 17.12Q16.56 17.12 15.46 16.70Q14.36 16.27 13.61 15.50Q12.86 14.72 12.47 13.64Q12.07 12.56 12.07 11.26L12.07 11.26Q12.07 10.72 12.14 10.14L12.14 10.14L13.34 0.18L17.09 0.18L15.87 10.14Q15.85 10.35 15.84 10.55Q15.82 10.75 15.82 10.95L15.82 10.95Q15.82 12.37 16.47 13.18Q17.12 14.00 18.35 14.00ZM30.89 0.18L30.89 0.18Q31.13 0.18 31.30 0.20Q31.46 0.22 31.60 0.28Q31.73 0.34 31.83 0.46Q31.94 0.57 32.04 0.76L32.04 0.76L37.92 11.11Q37.94 10.71 37.98 10.34Q38.03 9.97 38.06 9.65L38.06 9.65L39.19 0.18L42.50 0.18L40.43 16.94L38.48 16.94Q38.04 16.94 37.75 16.81Q37.47 16.69 37.26 16.32L37.26 16.32L31.41 5.98Q31.38 6.30 31.35 6.60Q31.33 6.90 31.30 7.16L31.30 7.16L30.15 16.94L26.84 16.94L28.91 0.18L30.89 0.18ZM53.27 0.18L57.16 16.94L54.26 16.94Q53.77 16.94 53.48 16.72Q53.19 16.49 53.13 16.12L53.13 16.12L52.61 13.11L46.92 13.11L45.68 16.12Q45.55 16.44 45.18 16.69Q44.82 16.94 44.37 16.94L44.37 16.94L41.42 16.94L49.43 0.18L53.27 0.18ZM49.93 5.80L47.97 10.56L52.18 10.56L51.36 5.77Q51.26 5.17 51.13 4.56Q51.01 3.94 50.93 3.44L50.93 3.44Q50.84 3.71 50.69 4.07Q50.54 4.42 50.40 4.75Q50.26 5.08 50.12 5.37Q49.99 5.66 49.93 5.80L49.93 5.80ZM68.79 16.94L62.54 16.94L64.61 0.18L70.36 0.18Q71.82 0.18 72.86 0.46Q73.90 0.74 74.56 1.25Q75.22 1.76 75.53 2.48Q75.83 3.20 75.83 4.07L75.83 4.07Q75.83 4.76 75.65 5.40Q75.47 6.04 75.09 6.58Q74.70 7.12 74.09 7.56Q73.49 8.00 72.62 8.30L72.62 8.30Q73.98 8.67 74.63 9.45Q75.28 10.22 75.28 11.41L75.28 11.41Q75.28 12.57 74.84 13.58Q74.39 14.58 73.55 15.33Q72.71 16.08 71.51 16.51Q70.31 16.94 68.79 16.94L68.79 16.94ZM69.58 9.79L67.16 9.79L66.63 14.12L69.09 14.12Q69.78 14.12 70.25 13.92Q70.73 13.72 71.02 13.36Q71.31 12.99 71.44 12.51Q71.58 12.03 71.58 11.45L71.58 11.45Q71.58 11.07 71.48 10.76Q71.38 10.45 71.14 10.24Q70.91 10.03 70.52 9.91Q70.14 9.79 69.58 9.79L69.58 9.79ZM67.99 2.98L67.46 7.30L69.25 7.30Q69.89 7.30 70.39 7.18Q70.90 7.05 71.26 6.74Q71.62 6.44 71.82 5.93Q72.01 5.43 72.01 4.68L72.01 4.68Q72.01 3.75 71.52 3.36Q71.04 2.98 70.01 2.98L70.01 2.98L67.99 2.98ZM92.81 7.49L92.81 7.49Q92.81 8.84 92.49 10.09Q92.17 11.33 91.59 12.40Q91.01 13.47 90.19 14.34Q89.37 15.21 88.34 15.83Q87.32 16.44 86.12 16.78Q84.93 17.12 83.61 17.12L83.61 17.12Q81.95 17.12 80.63 16.54Q79.32 15.96 78.40 14.96Q77.48 13.95 76.99 12.59Q76.50 11.22 76.50 9.65L76.50 9.65Q76.50 8.29 76.81 7.04Q77.13 5.80 77.71 4.73Q78.29 3.66 79.12 2.78Q79.95 1.91 80.97 1.29Q82.00 0.68 83.19 0.34Q84.39-0.00 85.72-0.00L85.72-0.00Q87.37-0.00 88.68 0.58Q90.00 1.16 90.91 2.17Q91.83 3.19 92.32 4.55Q92.81 5.92 92.81 7.49ZM88.96 7.58L88.96 7.58Q88.96 6.54 88.72 5.70Q88.47 4.85 87.99 4.25Q87.52 3.65 86.83 3.32Q86.14 2.99 85.26 2.99L85.26 2.99Q84.11 2.99 83.20 3.47Q82.29 3.94 81.66 4.81Q81.02 5.67 80.68 6.88Q80.34 8.10 80.34 9.57L80.34 9.57Q80.34 10.60 80.58 11.44Q80.82 12.28 81.29 12.88Q81.75 13.48 82.44 13.81Q83.13 14.13 84.02 14.13L84.02 14.13Q85.17 14.13 86.08 13.66Q87.00 13.19 87.64 12.33Q88.27 11.47 88.62 10.26Q88.96 9.05 88.96 7.58ZM107.89 0.18L101.03 10.52L100.23 16.94L96.48 16.94L97.28 10.56L92.97 0.18L96.30 0.18Q96.78 0.18 97.05 0.41Q97.32 0.63 97.45 1.00L97.45 1.00L99.06 6.07Q99.22 6.58 99.35 7.05Q99.49 7.52 99.58 7.96L99.58 7.96Q99.80 7.52 100.06 7.06Q100.33 6.59 100.63 6.07L100.63 6.07L103.48 1.00Q103.65 0.69 103.98 0.44Q104.32 0.18 104.79 0.18L104.79 0.18L107.89 0.18Z"></path></svg>